<svg
  xmlns="http://www.w3.org/2000/svg"
  viewBox="0 0 64 64"
  width="64"
  height="64"
  fill="none"
  stroke="currentColor"
  stroke-width="2"
  stroke-linecap="round"
  stroke-linejoin="round"
>
  <!-- Forma principale del molare -->
  <path
    d="M32 2C26 2 23 7 18 7C13 7 5 10 5 20C5 30 11 36 15 42C18 46 21 60 32 60C43 60 46 46 49 42C53 36 59 30 59 20C59 10 51 7 46 7C41 7 38 2 32 2Z"
  />
  <!-- Le quattro punte inferiori -->
  <path d="M22 45C20 50 25 55 28 52" />
  <path d="M28 52C30 57 34 57 36 52" />
  <path d="M36 52C39 55 44 50 42 45" />
  <path d="M28 52C30 55 34 55 36 52" />
</svg>
